<?xml version="1.0" encoding="UTF-8"?>
<!DOCTYPE svg PUBLIC '-//W3C//DTD SVG 1.0//EN' 'http://www.w3.org/TR/2001/REC-SVG-20010904/DTD/svg10.dtd'>
<svg fill-opacity="0" xmlns:xlink="http://www.w3.org/1999/xlink" color-rendering="auto" color-interpolation="auto" text-rendering="auto" stroke="rgb(0,0,0)" stroke-linecap="square" width="973" stroke-miterlimit="10" shape-rendering="auto" stroke-opacity="0" fill="rgb(0,0,0)" stroke-dasharray="none" font-weight="normal" stroke-width="1" height="414" xmlns="http://www.w3.org/2000/svg" font-family="'Dialog'" font-style="normal" stroke-linejoin="miter" font-size="12px" stroke-dashoffset="0" image-rendering="auto"
>
  <!--Generated by the Batik Graphics2D SVG Generator-->
  <defs id="genericDefs"
  />
  <g>
    <defs id="defs1"
    >
      <clipPath clipPathUnits="userSpaceOnUse" id="clipPath1"
      >
        <path d="M-7 -7 L229 -7 L229 135 L-7 135 L-7 -7 Z"
        />
      </clipPath>
      <clipPath clipPathUnits="userSpaceOnUse" id="clipPath2"
      >
        <path d="M0 0 L0 110 L218 110 L218 0 Z"
        />
      </clipPath>
      <clipPath clipPathUnits="userSpaceOnUse" id="clipPath3"
      >
        <path d="M0 0 L0 14 L218 14 L218 0 Z"
        />
      </clipPath>
      <clipPath clipPathUnits="userSpaceOnUse" id="clipPath4"
      >
        <path d="M-7 -7 L237 -7 L237 75 L-7 75 L-7 -7 Z"
        />
      </clipPath>
      <clipPath clipPathUnits="userSpaceOnUse" id="clipPath5"
      >
        <path d="M0 0 L0 50 L226 50 L226 0 Z"
        />
      </clipPath>
      <clipPath clipPathUnits="userSpaceOnUse" id="clipPath6"
      >
        <path d="M0 0 L0 14 L226 14 L226 0 Z"
        />
      </clipPath>
      <clipPath clipPathUnits="userSpaceOnUse" id="clipPath7"
      >
        <path d="M-7 -7 L477 -7 L477 121 L-7 121 L-7 -7 Z"
        />
      </clipPath>
      <clipPath clipPathUnits="userSpaceOnUse" id="clipPath8"
      >
        <path d="M0 0 L0 96 L466 96 L466 0 Z"
        />
      </clipPath>
      <clipPath clipPathUnits="userSpaceOnUse" id="clipPath9"
      >
        <path d="M0 0 L0 14 L466 14 L466 0 Z"
        />
      </clipPath>
      <clipPath clipPathUnits="userSpaceOnUse" id="clipPath10"
      >
        <path d="M-7 -7 L551 -7 L551 93 L-7 93 L-7 -7 Z"
        />
      </clipPath>
      <clipPath clipPathUnits="userSpaceOnUse" id="clipPath11"
      >
        <path d="M0 0 L0 68 L540 68 L540 0 Z"
        />
      </clipPath>
      <clipPath clipPathUnits="userSpaceOnUse" id="clipPath12"
      >
        <path d="M0 0 L0 14 L540 14 L540 0 Z"
        />
      </clipPath>
      <clipPath clipPathUnits="userSpaceOnUse" id="clipPath13"
      >
        <path d="M-7 -7 L113 -7 L113 113 L-7 113 L-7 -7 Z"
        />
      </clipPath>
      <clipPath clipPathUnits="userSpaceOnUse" id="clipPath14"
      >
        <path d="M0 0 L0 102 L102 102 L102 0 Z"
        />
      </clipPath>
      <clipPath clipPathUnits="userSpaceOnUse" id="clipPath15"
      >
        <path d="M-7 -7 L51 -7 L51 51 L-7 51 L-7 -7 Z"
        />
      </clipPath>
      <clipPath clipPathUnits="userSpaceOnUse" id="clipPath16"
      >
        <path d="M0 0 L0 40 L40 40 L40 0 Z"
        />
      </clipPath>
      <clipPath clipPathUnits="userSpaceOnUse" id="clipPath17"
      >
        <path d="M-7 -7 L109 -7 L109 109 L-7 109 L-7 -7 Z"
        />
      </clipPath>
      <clipPath clipPathUnits="userSpaceOnUse" id="clipPath18"
      >
        <path d="M0 0 L0 98 L98 98 L98 0 Z"
        />
      </clipPath>
      <clipPath clipPathUnits="userSpaceOnUse" id="clipPath19"
      >
        <path d="M0 0 L104 0 L104 231 L0 231 L0 0 Z"
        />
      </clipPath>
      <clipPath clipPathUnits="userSpaceOnUse" id="clipPath20"
      >
        <path d="M0 0 L0 231 L104 231 L104 0 Z"
        />
      </clipPath>
      <clipPath clipPathUnits="userSpaceOnUse" id="clipPath21"
      >
        <path d="M0 0 L370 0 L370 300 L0 300 L0 0 Z"
        />
      </clipPath>
      <clipPath clipPathUnits="userSpaceOnUse" id="clipPath22"
      >
        <path d="M0 0 L0 300 L370 300 L370 0 Z"
        />
      </clipPath>
      <clipPath clipPathUnits="userSpaceOnUse" id="clipPath23"
      >
        <path d="M0 0 L271 0 L271 104 L0 104 L0 0 Z"
        />
      </clipPath>
      <clipPath clipPathUnits="userSpaceOnUse" id="clipPath24"
      >
        <path d="M0 0 L0 104 L271 104 L271 0 Z"
        />
      </clipPath>
    </defs>
    <g fill="white" text-rendering="geometricPrecision" fill-opacity="1" stroke-opacity="1" stroke="white"
    >
      <rect x="0" width="973" height="414" y="0" stroke="none"
      />
    </g>
    <g font-size="11px" transform="translate(711,47)" fill-opacity="1" fill="rgb(122,207,245)" text-rendering="geometricPrecision" image-rendering="optimizeQuality" font-family="sans-serif" stroke="rgb(122,207,245)" font-weight="bold" stroke-opacity="1"
    >
      <rect x="0" width="218" height="124" y="0" clip-path="url(#clipPath1)" stroke="none"
      />
    </g>
    <g fill-opacity="1" text-rendering="geometricPrecision" stroke="black" stroke-linecap="butt" transform="translate(711,47)" stroke-miterlimit="0" stroke-opacity="1" fill="black" font-weight="bold" font-family="sans-serif" stroke-linejoin="round" font-size="11px" image-rendering="optimizeQuality"
    >
      <rect fill="none" x="0" width="218" height="124" y="0" clip-path="url(#clipPath1)"
      />
      <line y2="14" fill="none" x1="0" clip-path="url(#clipPath1)" x2="218" y1="14"
      />
    </g>
    <g font-size="11px" transform="matrix(1,0,0,1,711,61)" fill-opacity="1" fill="black" text-rendering="geometricPrecision" image-rendering="optimizeQuality" font-family="sans-serif" stroke="black" stroke-opacity="1"
    >
      <text x="2" xml:space="preserve" y="13" clip-path="url(#clipPath2)" stroke="none"
      >-scanner : Scanner</text>
    </g>
    <g font-size="11px" transform="matrix(1,0,0,1,711,61)" fill-opacity="1" fill="black" text-rendering="geometricPrecision" image-rendering="optimizeQuality" font-family="sans-serif" stroke="black" stroke-opacity="1"
    >
      <line y2="15" fill="none" x1="2" clip-path="url(#clipPath2)" x2="102" y1="15"
      />
    </g>
    <g font-size="11px" transform="matrix(1,0,0,1,711,61)" fill-opacity="1" fill="black" text-rendering="geometricPrecision" image-rendering="optimizeQuality" font-family="sans-serif" stroke="black" stroke-opacity="1"
    >
      <text x="2" xml:space="preserve" y="27" clip-path="url(#clipPath2)" stroke="none"
      >-apptCalendar : ApptCalendar</text>
      <line y2="29" fill="none" x1="2" clip-path="url(#clipPath2)" x2="163" y1="29"
      />
      <line stroke-linecap="butt" clip-path="url(#clipPath2)" fill="none" x1="0" x2="218" y1="32" y2="32" stroke-linejoin="bevel" stroke-miterlimit="0"
      />
    </g>
    <g font-size="11px" transform="matrix(1,0,0,1,711,61)" fill-opacity="1" fill="black" text-rendering="geometricPrecision" image-rendering="optimizeQuality" font-family="sans-serif" stroke="black" stroke-opacity="1"
    >
      <text x="2" xml:space="preserve" y="45" clip-path="url(#clipPath2)" stroke="none"
      >+main(args : String[]) : void</text>
      <line y2="47" fill="none" x1="2" clip-path="url(#clipPath2)" x2="149" y1="47"
      />
    </g>
    <g font-size="11px" transform="matrix(1,0,0,1,711,61)" fill-opacity="1" fill="black" text-rendering="geometricPrecision" image-rendering="optimizeQuality" font-family="sans-serif" stroke="black" stroke-opacity="1"
    >
      <text x="2" xml:space="preserve" y="59" clip-path="url(#clipPath2)" stroke="none"
      >-menu() : void</text>
      <line y2="61" fill="none" x1="2" clip-path="url(#clipPath2)" x2="79" y1="61"
      />
    </g>
    <g font-size="11px" transform="matrix(1,0,0,1,711,61)" fill-opacity="1" fill="black" text-rendering="geometricPrecision" image-rendering="optimizeQuality" font-family="sans-serif" stroke="black" stroke-opacity="1"
    >
      <text x="2" xml:space="preserve" y="73" clip-path="url(#clipPath2)" stroke="none"
      >-generateAppointmentReport() : void</text>
      <line y2="75" fill="none" x1="2" clip-path="url(#clipPath2)" x2="200" y1="75"
      />
    </g>
    <g font-size="11px" transform="matrix(1,0,0,1,711,61)" fill-opacity="1" fill="black" text-rendering="geometricPrecision" image-rendering="optimizeQuality" font-family="sans-serif" stroke="black" stroke-opacity="1"
    >
      <text x="2" xml:space="preserve" y="87" clip-path="url(#clipPath2)" stroke="none"
      >-schedulePeriodicAppointment() : void</text>
      <line y2="89" fill="none" x1="2" clip-path="url(#clipPath2)" x2="208" y1="89"
      />
    </g>
    <g font-size="11px" transform="matrix(1,0,0,1,711,61)" fill-opacity="1" fill="black" text-rendering="geometricPrecision" image-rendering="optimizeQuality" font-family="sans-serif" stroke="black" stroke-opacity="1"
    >
      <text x="2" xml:space="preserve" y="101" clip-path="url(#clipPath2)" stroke="none"
      >-scheduleOneTimeAppointment() : void</text>
      <line y2="103" fill="none" x1="2" clip-path="url(#clipPath2)" x2="213" y1="103"
      />
    </g>
    <g font-size="11px" transform="translate(711,47)" fill-opacity="1" fill="black" text-rendering="geometricPrecision" image-rendering="optimizeQuality" font-family="sans-serif" stroke="black" font-weight="bold" stroke-opacity="1"
    >
      <text x="94" xml:space="preserve" y="11" clip-path="url(#clipPath3)" stroke="none"
      >Main</text>
    </g>
    <g font-size="11px" transform="translate(390,2)" fill-opacity="1" fill="rgb(122,207,245)" text-rendering="geometricPrecision" image-rendering="optimizeQuality" font-family="sans-serif" stroke="rgb(122,207,245)" font-weight="bold" stroke-opacity="1"
    >
      <rect x="0" width="226" height="64" y="0" clip-path="url(#clipPath4)" stroke="none"
      />
    </g>
    <g fill-opacity="1" text-rendering="geometricPrecision" stroke="black" stroke-linecap="butt" transform="translate(390,2)" stroke-miterlimit="0" stroke-opacity="1" fill="black" font-weight="bold" font-family="sans-serif" stroke-linejoin="round" font-size="11px" image-rendering="optimizeQuality"
    >
      <rect fill="none" x="0" width="226" height="64" y="0" clip-path="url(#clipPath4)"
      />
      <line y2="14" fill="none" x1="0" clip-path="url(#clipPath4)" x2="226" y1="14"
      />
    </g>
    <g font-size="11px" transform="matrix(1,0,0,1,390,16)" fill-opacity="1" fill="black" text-rendering="geometricPrecision" image-rendering="optimizeQuality" font-family="sans-serif" stroke="black" stroke-opacity="1"
    >
      <text x="2" xml:space="preserve" y="13" clip-path="url(#clipPath5)" stroke="none"
      >+parseInt(x : String) : Optional&lt;Integer&gt;</text>
    </g>
    <g font-size="11px" transform="matrix(1,0,0,1,390,16)" fill-opacity="1" fill="black" text-rendering="geometricPrecision" image-rendering="optimizeQuality" font-family="sans-serif" stroke="black" stroke-opacity="1"
    >
      <line y2="15" fill="none" x1="2" clip-path="url(#clipPath5)" x2="221" y1="15"
      />
    </g>
    <g font-size="11px" transform="matrix(1,0,0,1,390,16)" fill-opacity="1" fill="black" text-rendering="geometricPrecision" image-rendering="optimizeQuality" font-family="sans-serif" stroke="black" stroke-opacity="1"
    >
      <text x="2" xml:space="preserve" y="27" clip-path="url(#clipPath5)" stroke="none"
      >+readInt(sc : Scanner) : int</text>
      <line y2="29" fill="none" x1="2" clip-path="url(#clipPath5)" x2="144" y1="29"
      />
    </g>
    <g font-size="11px" transform="matrix(1,0,0,1,390,16)" fill-opacity="1" fill="black" text-rendering="geometricPrecision" image-rendering="optimizeQuality" font-family="sans-serif" stroke="black" stroke-opacity="1"
    >
      <text x="2" xml:space="preserve" y="41" clip-path="url(#clipPath5)" stroke="none"
      >+readDate(sc : Scanner) : LocalDate</text>
      <line y2="43" fill="none" x1="2" clip-path="url(#clipPath5)" x2="192" y1="43"
      />
    </g>
    <g font-size="11px" transform="translate(390,2)" fill-opacity="1" fill="black" text-rendering="geometricPrecision" image-rendering="optimizeQuality" font-family="sans-serif" stroke="black" font-weight="bold" stroke-opacity="1"
    >
      <text x="91" xml:space="preserve" y="11" clip-path="url(#clipPath6)" stroke="none"
      >Utilities</text>
    </g>
    <g font-size="11px" transform="translate(503,300)" fill-opacity="1" fill="rgb(122,207,245)" text-rendering="geometricPrecision" image-rendering="optimizeQuality" font-family="sans-serif" stroke="rgb(122,207,245)" font-weight="bold" stroke-opacity="1"
    >
      <rect x="0" width="466" height="110" y="0" clip-path="url(#clipPath7)" stroke="none"
      />
    </g>
    <g fill-opacity="1" text-rendering="geometricPrecision" stroke="black" stroke-linecap="butt" transform="translate(503,300)" stroke-miterlimit="0" stroke-opacity="1" fill="black" font-weight="bold" font-family="sans-serif" stroke-linejoin="round" font-size="11px" image-rendering="optimizeQuality"
    >
      <rect fill="none" x="0" width="466" height="110" y="0" clip-path="url(#clipPath7)"
      />
      <line y2="14" fill="none" x1="0" clip-path="url(#clipPath7)" x2="466" y1="14"
      />
    </g>
    <g font-size="11px" transform="matrix(1,0,0,1,503,314)" fill-opacity="1" fill="black" text-rendering="geometricPrecision" image-rendering="optimizeQuality" font-family="sans-serif" stroke="black" stroke-opacity="1"
    >
      <text x="2" xml:space="preserve" y="13" clip-path="url(#clipPath8)" stroke="none"
      >&lt;&lt;Property&gt;&gt; -name : String</text>
    </g>
    <g font-size="11px" transform="matrix(1,0,0,1,503,314)" fill-opacity="1" fill="black" text-rendering="geometricPrecision" image-rendering="optimizeQuality" font-family="sans-serif" stroke="black" stroke-opacity="1"
    >
      <text x="2" xml:space="preserve" y="27" clip-path="url(#clipPath8)" stroke="none"
      >&lt;&lt;Property&gt;&gt; -date : LocalDate</text>
    </g>
    <g font-size="11px" transform="matrix(1,0,0,1,503,314)" fill-opacity="1" fill="black" text-rendering="geometricPrecision" image-rendering="optimizeQuality" font-family="sans-serif" stroke="black" stroke-opacity="1"
    >
      <text x="2" xml:space="preserve" y="41" clip-path="url(#clipPath8)" stroke="none"
      >&lt;&lt;Property&gt;&gt; -repeatTimes : int</text>
    </g>
    <g font-size="11px" transform="matrix(1,0,0,1,503,314)" fill-opacity="1" fill="black" text-rendering="geometricPrecision" image-rendering="optimizeQuality" font-family="sans-serif" stroke="black" stroke-opacity="1"
    >
      <text x="2" xml:space="preserve" y="55" clip-path="url(#clipPath8)" stroke="none"
      >&lt;&lt;Property&gt;&gt; -repeatDuration : int</text>
      <line stroke-linecap="butt" clip-path="url(#clipPath8)" fill="none" x1="0" x2="466" y1="60" y2="60" stroke-linejoin="bevel" stroke-miterlimit="0"
      />
    </g>
    <g font-size="11px" transform="matrix(1,0,0,1,503,314)" fill-opacity="1" fill="black" text-rendering="geometricPrecision" image-rendering="optimizeQuality" font-family="sans-serif" stroke="black" stroke-opacity="1"
    >
      <text x="2" xml:space="preserve" y="73" clip-path="url(#clipPath8)" stroke="none"
      >+Appointment(name : String, date : LocalDate)</text>
    </g>
    <g font-size="11px" transform="matrix(1,0,0,1,503,314)" fill-opacity="1" fill="black" text-rendering="geometricPrecision" image-rendering="optimizeQuality" font-family="sans-serif" stroke="black" stroke-opacity="1"
    >
      <text x="2" xml:space="preserve" y="87" clip-path="url(#clipPath8)" stroke="none"
      >+Appointment(name : String, date : LocalDate, repeatTimes : int, repeatDuration : int)</text>
    </g>
    <g font-size="11px" transform="translate(503,300)" fill-opacity="1" fill="black" text-rendering="geometricPrecision" image-rendering="optimizeQuality" font-family="sans-serif" stroke="black" font-weight="bold" stroke-opacity="1"
    >
      <text x="196" xml:space="preserve" y="11" clip-path="url(#clipPath9)" stroke="none"
      >Appointment</text>
    </g>
    <g font-size="11px" transform="translate(2,76)" fill-opacity="1" fill="rgb(122,207,245)" text-rendering="geometricPrecision" image-rendering="optimizeQuality" font-family="sans-serif" stroke="rgb(122,207,245)" font-weight="bold" stroke-opacity="1"
    >
      <rect x="0" width="540" height="82" y="0" clip-path="url(#clipPath10)" stroke="none"
      />
    </g>
    <g fill-opacity="1" text-rendering="geometricPrecision" stroke="black" stroke-linecap="butt" transform="translate(2,76)" stroke-miterlimit="0" stroke-opacity="1" fill="black" font-weight="bold" font-family="sans-serif" stroke-linejoin="round" font-size="11px" image-rendering="optimizeQuality"
    >
      <rect fill="none" x="0" width="540" height="82" y="0" clip-path="url(#clipPath10)"
      />
      <line y2="14" fill="none" x1="0" clip-path="url(#clipPath10)" x2="540" y1="14"
      />
    </g>
    <g font-size="11px" transform="matrix(1,0,0,1,2,90)" fill-opacity="1" fill="black" text-rendering="geometricPrecision" image-rendering="optimizeQuality" font-family="sans-serif" stroke="black" stroke-opacity="1"
    >
      <text x="2" xml:space="preserve" y="13" clip-path="url(#clipPath11)" stroke="none"
      >-appointments : Appointment</text>
    </g>
    <g stroke-linecap="butt" font-size="11px" transform="matrix(1,0,0,1,2,90)" fill-opacity="1" fill="black" text-rendering="geometricPrecision" image-rendering="optimizeQuality" font-family="sans-serif" stroke-linejoin="bevel" stroke="black" stroke-opacity="1" stroke-miterlimit="0"
    >
      <line y2="18" fill="none" x1="0" clip-path="url(#clipPath11)" x2="540" y1="18"
      />
    </g>
    <g font-size="11px" transform="matrix(1,0,0,1,2,90)" fill-opacity="1" fill="black" text-rendering="geometricPrecision" image-rendering="optimizeQuality" font-family="sans-serif" stroke="black" stroke-opacity="1"
    >
      <text x="2" xml:space="preserve" y="31" clip-path="url(#clipPath11)" stroke="none"
      >+ApptCalendar()</text>
    </g>
    <g font-size="11px" transform="matrix(1,0,0,1,2,90)" fill-opacity="1" fill="black" text-rendering="geometricPrecision" image-rendering="optimizeQuality" font-family="sans-serif" stroke="black" stroke-opacity="1"
    >
      <text x="2" xml:space="preserve" y="45" clip-path="url(#clipPath11)" stroke="none"
      >+addAppointment(appt : Appointment) : void</text>
    </g>
    <g font-size="11px" transform="matrix(1,0,0,1,2,90)" fill-opacity="1" fill="black" text-rendering="geometricPrecision" image-rendering="optimizeQuality" font-family="sans-serif" stroke="black" stroke-opacity="1"
    >
      <text x="2" xml:space="preserve" y="59" clip-path="url(#clipPath11)" stroke="none"
      >+getAppointmentsBetweenDates(initialDate : LocalDate, finalDate : LocalDate) : List&lt;Appointment&gt;</text>
    </g>
    <g font-size="11px" transform="translate(2,76)" fill-opacity="1" fill="black" text-rendering="geometricPrecision" image-rendering="optimizeQuality" font-family="sans-serif" stroke="black" font-weight="bold" stroke-opacity="1"
    >
      <text x="230" xml:space="preserve" y="11" clip-path="url(#clipPath12)" stroke="none"
      >ApptCalendar</text>
    </g>
    <g font-size="11px" transform="translate(397,296)" fill-opacity="1" fill="black" text-rendering="geometricPrecision" image-rendering="optimizeQuality" font-family="sans-serif" stroke="black" stroke-opacity="1"
    >
      <text x="10" xml:space="preserve" y="55" clip-path="url(#clipPath14)" stroke="none"
      >-appointments</text>
    </g>
    <g font-size="11px" transform="translate(465,343)" fill-opacity="1" fill="black" text-rendering="geometricPrecision" image-rendering="optimizeQuality" font-family="sans-serif" stroke="black" stroke-opacity="1"
    >
      <text x="17" xml:space="preserve" y="24" clip-path="url(#clipPath16)" stroke="none"
      >*</text>
    </g>
    <g font-size="11px" transform="translate(547,75)" fill-opacity="1" fill="black" text-rendering="geometricPrecision" image-rendering="optimizeQuality" font-family="sans-serif" stroke="black" stroke-opacity="1"
    >
      <text x="10" xml:space="preserve" y="53" clip-path="url(#clipPath18)" stroke="none"
      >-apptCalendar</text>
    </g>
    <g stroke-linecap="butt" font-size="11px" transform="translate(770,122)" fill-opacity="1" fill="black" text-rendering="geometricPrecision" image-rendering="optimizeQuality" font-family="sans-serif" stroke-linejoin="round" stroke="black" stroke-opacity="1"
    >
      <line y2="50" fill="none" x1="50" clip-path="url(#clipPath20)" x2="50" y1="177"
      />
      <polygon fill="white" clip-path="url(#clipPath20)" points=" 50 177 56 165 44 165" stroke="none"
      />
      <polygon fill="none" points=" 50 177 56 165 44 165" clip-path="url(#clipPath20)"
      />
    </g>
    <g stroke-linecap="butt" font-size="11px" transform="translate(186,109)" fill-opacity="1" fill="black" text-rendering="geometricPrecision" image-rendering="optimizeQuality" font-family="sans-serif" stroke-linejoin="round" stroke="black" stroke-opacity="1"
    >
      <line y2="246" fill="none" x1="50" clip-path="url(#clipPath22)" x2="50" y1="50"
      />
      <line y2="246" fill="none" x1="50" clip-path="url(#clipPath22)" x2="310" y1="246"
      />
      <line y2="63" fill="none" x1="44" clip-path="url(#clipPath22)" x2="56" y1="54"
      />
      <line y2="63" fill="none" x1="56" clip-path="url(#clipPath22)" x2="44" y1="54"
      />
      <line y2="240" fill="none" x1="310" clip-path="url(#clipPath22)" x2="298" y1="246"
      />
      <line y2="252" fill="none" x1="310" clip-path="url(#clipPath22)" x2="298" y1="246"
      />
      <circle r="3.2" clip-path="url(#clipPath22)" cx="312.8" cy="246" stroke="none"
      />
    </g>
    <g stroke-linecap="butt" font-size="11px" transform="translate(493,67)" fill-opacity="1" fill="black" text-rendering="geometricPrecision" image-rendering="optimizeQuality" font-family="sans-serif" stroke-linejoin="round" stroke="black" stroke-opacity="1"
    >
      <line y2="50" fill="none" x1="217" clip-path="url(#clipPath24)" x2="56" y1="50"
      />
      <line y2="56" fill="none" x1="212" clip-path="url(#clipPath24)" x2="203" y1="44"
      />
      <line y2="44" fill="none" x1="212" clip-path="url(#clipPath24)" x2="203" y1="56"
      />
      <line y2="56" fill="none" x1="56" clip-path="url(#clipPath24)" x2="68" y1="50"
      />
      <line y2="44" fill="none" x1="56" clip-path="url(#clipPath24)" x2="68" y1="50"
      />
      <circle r="3.2" clip-path="url(#clipPath24)" cx="53.2" cy="50" stroke="none"
      />
    </g>
    
  </g>
</svg>